<svg xmlns="http://www.w3.org/2000/svg" width="79.004" height="75" viewBox="0 0 79.004 75"><g transform="translate(-11.15 -13.3)"><path d="M65.6,65.4A5.617,5.617,0,0,0,65,54.2h-.2A5.6,5.6,0,0,0,59.4,60,5.743,5.743,0,0,0,61,63.7c-3.4,6.7-8.6,11.6-16.4,15.7a27.043,27.043,0,0,1-16.3,3.1c-4.5-.6-8-2.6-10.2-5.9a14.689,14.689,0,0,1-.8-15.5,23.539,23.539,0,0,1,6.8-8c-.4-1.3-1-3.5-1.3-5.1C8.3,58.5,9.8,72.7,14.2,79.4c3.3,5,10,8.1,17.4,8.1a24.584,24.584,0,0,0,6-.7A38.375,38.375,0,0,0,65.6,65.4Z" transform="translate(0 0.4)" fill="#7e22ce"/><path d="M83.2,53c-7.6-8.9-18.8-13.8-31.6-13.8H50a5.5,5.5,0,0,0-4.9-3h-.2a5.6,5.6,0,0,0,.2,11.2h.2A5.633,5.633,0,0,0,50.2,44H52a38.114,38.114,0,0,1,21.3,6.5A26.788,26.788,0,0,1,83.9,63.3a13.86,13.86,0,0,1-.2,11.8A14.681,14.681,0,0,1,70,83.3a25.576,25.576,0,0,1-9.8-2.1c-1.1,1-3.1,2.6-4.5,3.6a30.869,30.869,0,0,0,12.9,3.1c9.6,0,16.7-5.3,19.4-10.6,2.9-5.8,2.7-15.8-4.8-24.3Z" transform="translate(0.421 0.4)" fill="#7e22ce"/><path d="M32.4,67.1A5.617,5.617,0,0,0,38,72.5h.2A5.6,5.6,0,0,0,38,61.3h-.2a1.7,1.7,0,0,0-.7.1,36.641,36.641,0,0,1-5.2-22.2,26.826,26.826,0,0,1,5.9-15.5c2.9-3.7,8.5-5.5,12.3-5.6,10.6-.2,15.1,13,15.4,18.3,1.3.3,3.5,1,5,1.5C69.3,21.7,59.3,13.3,49.7,13.3c-9,0-17.3,6.5-20.6,16.1-4.6,12.8-1.6,25.1,4,34.8a4.492,4.492,0,0,0-.7,2.9Z" transform="translate(0.189)" fill="#7e22ce"/></g></svg>